<?xml version="1.0" encoding="UTF-8"?>
<svg xmlns="http://www.w3.org/2000/svg" version="1.1" width="400" height="400" viewBox="0 0 400 400"><rect x="0" y="0" width="400" height="400" fill="#ffffff"/><g transform="scale(19.048)"><g transform="translate(0,0)"><path fill-rule="evenodd" d="M8 0L8 1L9 1L9 2L8 2L8 5L11 5L11 4L12 4L12 3L13 3L13 0L12 0L12 3L11 3L11 2L10 2L10 0ZM9 2L9 4L11 4L11 3L10 3L10 2ZM8 6L8 7L9 7L9 8L8 8L8 9L7 9L7 8L6 8L6 9L4 9L4 8L0 8L0 12L1 12L1 13L2 13L2 11L4 11L4 10L6 10L6 11L7 11L7 12L6 12L6 13L7 13L7 12L8 12L8 14L11 14L11 13L12 13L12 12L13 12L13 15L9 15L9 17L8 17L8 21L9 21L9 20L11 20L11 21L13 21L13 19L14 19L14 20L15 20L15 21L16 21L16 20L17 20L17 21L18 21L18 19L19 19L19 18L20 18L20 17L21 17L21 15L20 15L20 17L19 17L19 18L17 18L17 17L18 17L18 15L19 15L19 13L20 13L20 12L21 12L21 8L20 8L20 9L19 9L19 8L16 8L16 9L15 9L15 10L13 10L13 9L14 9L14 8L13 8L13 9L12 9L12 12L11 12L11 13L10 13L10 11L9 11L9 10L8 10L8 9L9 9L9 8L10 8L10 9L11 9L11 6L10 6L10 7L9 7L9 6ZM12 6L12 7L13 7L13 6ZM1 9L1 11L2 11L2 10L3 10L3 9ZM6 9L6 10L7 10L7 11L8 11L8 12L9 12L9 11L8 11L8 10L7 10L7 9ZM16 9L16 10L17 10L17 11L14 11L14 14L15 14L15 17L14 17L14 16L12 16L12 17L11 17L11 16L10 16L10 17L9 17L9 19L10 19L10 17L11 17L11 18L12 18L12 19L13 19L13 17L14 17L14 19L15 19L15 20L16 20L16 17L17 17L17 15L18 15L18 12L19 12L19 11L18 11L18 10L17 10L17 9ZM4 12L4 13L5 13L5 12ZM16 12L16 13L15 13L15 14L16 14L16 15L17 15L17 14L16 14L16 13L17 13L17 12ZM20 19L20 20L21 20L21 19ZM0 0L0 7L7 7L7 0ZM1 1L1 6L6 6L6 1ZM2 2L2 5L5 5L5 2ZM14 0L14 7L21 7L21 0ZM15 1L15 6L20 6L20 1ZM16 2L16 5L19 5L19 2ZM0 14L0 21L7 21L7 14ZM1 15L1 20L6 20L6 15ZM2 16L2 19L5 19L5 16Z" fill="#000000"/></g></g></svg>
